<?xml version="1.0" encoding="iso-8859-1"?>
<!DOCTYPE svg PUBLIC "-//W3C//DTD SVG 1.0//EN" "http://www.w3.org/TR/2001/REC-SVG-20010904/DTD/svg10.dtd">
<svg width="1237" height="724" xmlns="http://www.w3.org/2000/svg" xmlns:xlink="http://www.w3.org/1999/xlink">
<g style="stroke:black;fill:lightgreen" transform="translate(30,30)">
<line x1="539" y1="243" x2="539" y2="249" style="stroke:blue; stroke-width:1"/>
<line x1="539" y1="249" x2="561" y2="249" style="stroke:blue; stroke-width:1"/>
<line x1="539" y1="243" x2="539" y2="237" style="stroke:blue; stroke-width:1"/>
<line x1="539" y1="237" x2="551" y2="237" style="stroke:blue; stroke-width:1"/>
<line x1="548" y1="218" x2="548" y2="224" style="stroke:blue; stroke-width:1"/>
<line x1="548" y1="224" x2="728" y2="224" style="stroke:blue; stroke-width:1"/>
<line x1="548" y1="218" x2="548" y2="212" style="stroke:blue; stroke-width:1"/>
<line x1="548" y1="212" x2="812" y2="212" style="stroke:blue; stroke-width:1"/>
<line x1="648" y1="169" x2="648" y2="175" style="stroke:blue; stroke-width:1"/>
<line x1="648" y1="175" x2="807" y2="175" style="stroke:blue; stroke-width:1"/>
<line x1="648" y1="169" x2="648" y2="163" style="stroke:blue; stroke-width:1"/>
<line x1="648" y1="163" x2="870" y2="163" style="stroke:blue; stroke-width:1"/>
<line x1="590" y1="178" x2="590" y2="188" style="stroke:blue; stroke-width:1"/>
<line x1="590" y1="188" x2="708" y2="188" style="stroke:blue; stroke-width:1"/>
<line x1="501" y1="189" x2="501" y2="200" style="stroke:blue; stroke-width:1"/>
<line x1="501" y1="200" x2="718" y2="200" style="stroke:blue; stroke-width:1"/>
<line x1="702" y1="120" x2="702" y2="126" style="stroke:blue; stroke-width:1"/>
<line x1="702" y1="126" x2="716" y2="126" style="stroke:blue; stroke-width:1"/>
<line x1="702" y1="120" x2="702" y2="114" style="stroke:blue; stroke-width:1"/>
<line x1="702" y1="114" x2="702" y2="114" style="stroke:blue; stroke-width:1"/>
<line x1="639" y1="129" x2="639" y2="139" style="stroke:blue; stroke-width:1"/>
<line x1="639" y1="139" x2="661" y2="139" style="stroke:blue; stroke-width:1"/>
<line x1="577" y1="140" x2="577" y2="151" style="stroke:blue; stroke-width:1"/>
<line x1="577" y1="151" x2="742" y2="151" style="stroke:blue; stroke-width:1"/>
<line x1="742" y1="22" x2="742" y2="28" style="stroke:blue; stroke-width:1"/>
<line x1="742" y1="28" x2="914" y2="28" style="stroke:blue; stroke-width:1"/>
<line x1="742" y1="22" x2="742" y2="16" style="stroke:blue; stroke-width:1"/>
<line x1="742" y1="16" x2="814" y2="16" style="stroke:blue; stroke-width:1"/>
<line x1="719" y1="31" x2="719" y2="41" style="stroke:blue; stroke-width:1"/>
<line x1="719" y1="41" x2="1071" y2="41" style="stroke:blue; stroke-width:1"/>
<line x1="637" y1="42" x2="637" y2="53" style="stroke:blue; stroke-width:1"/>
<line x1="637" y1="53" x2="708" y2="53" style="stroke:blue; stroke-width:1"/>
<line x1="611" y1="54" x2="611" y2="65" style="stroke:blue; stroke-width:1"/>
<line x1="611" y1="65" x2="856" y2="65" style="stroke:blue; stroke-width:1"/>
<line x1="593" y1="65" x2="593" y2="77" style="stroke:blue; stroke-width:1"/>
<line x1="593" y1="77" x2="797" y2="77" style="stroke:blue; stroke-width:1"/>
<line x1="743" y1="96" x2="743" y2="102" style="stroke:blue; stroke-width:1"/>
<line x1="743" y1="102" x2="765" y2="102" style="stroke:blue; stroke-width:1"/>
<line x1="743" y1="96" x2="743" y2="90" style="stroke:blue; stroke-width:1"/>
<line x1="743" y1="90" x2="772" y2="90" style="stroke:blue; stroke-width:1"/>
<line x1="701" y1="280" x2="701" y2="286" style="stroke:blue; stroke-width:1"/>
<line x1="701" y1="286" x2="909" y2="286" style="stroke:blue; stroke-width:1"/>
<line x1="701" y1="280" x2="701" y2="273" style="stroke:blue; stroke-width:1"/>
<line x1="701" y1="273" x2="827" y2="273" style="stroke:blue; stroke-width:1"/>
<line x1="657" y1="289" x2="657" y2="298" style="stroke:blue; stroke-width:1"/>
<line x1="657" y1="298" x2="815" y2="298" style="stroke:blue; stroke-width:1"/>
<line x1="622" y1="299" x2="622" y2="310" style="stroke:blue; stroke-width:1"/>
<line x1="622" y1="310" x2="706" y2="310" style="stroke:blue; stroke-width:1"/>
<line x1="602" y1="311" x2="602" y2="322" style="stroke:blue; stroke-width:1"/>
<line x1="602" y1="322" x2="740" y2="322" style="stroke:blue; stroke-width:1"/>
<line x1="584" y1="323" x2="584" y2="335" style="stroke:blue; stroke-width:1"/>
<line x1="584" y1="335" x2="668" y2="335" style="stroke:blue; stroke-width:1"/>
<line x1="375" y1="647" x2="375" y2="653" style="stroke:blue; stroke-width:1"/>
<line x1="375" y1="653" x2="561" y2="653" style="stroke:blue; stroke-width:1"/>
<line x1="375" y1="647" x2="375" y2="641" style="stroke:blue; stroke-width:1"/>
<line x1="375" y1="641" x2="476" y2="641" style="stroke:blue; stroke-width:1"/>
<line x1="341" y1="657" x2="341" y2="666" style="stroke:blue; stroke-width:1"/>
<line x1="341" y1="666" x2="472" y2="666" style="stroke:blue; stroke-width:1"/>
<line x1="546" y1="598" x2="546" y2="604" style="stroke:blue; stroke-width:1"/>
<line x1="546" y1="604" x2="584" y2="604" style="stroke:blue; stroke-width:1"/>
<line x1="546" y1="598" x2="546" y2="592" style="stroke:blue; stroke-width:1"/>
<line x1="546" y1="592" x2="562" y2="592" style="stroke:blue; stroke-width:1"/>
<line x1="508" y1="562" x2="508" y2="568" style="stroke:blue; stroke-width:1"/>
<line x1="508" y1="568" x2="514" y2="568" style="stroke:blue; stroke-width:1"/>
<line x1="508" y1="562" x2="508" y2="555" style="stroke:blue; stroke-width:1"/>
<line x1="508" y1="555" x2="508" y2="555" style="stroke:blue; stroke-width:1"/>
<line x1="433" y1="571" x2="433" y2="580" style="stroke:blue; stroke-width:1"/>
<line x1="433" y1="580" x2="492" y2="580" style="stroke:blue; stroke-width:1"/>
<line x1="318" y1="623" x2="318" y2="629" style="stroke:blue; stroke-width:1"/>
<line x1="318" y1="629" x2="624" y2="629" style="stroke:blue; stroke-width:1"/>
<line x1="318" y1="623" x2="318" y2="617" style="stroke:blue; stroke-width:1"/>
<line x1="318" y1="617" x2="469" y2="617" style="stroke:blue; stroke-width:1"/>
<line x1="451" y1="439" x2="451" y2="445" style="stroke:blue; stroke-width:1"/>
<line x1="451" y1="445" x2="455" y2="445" style="stroke:blue; stroke-width:1"/>
<line x1="451" y1="439" x2="451" y2="433" style="stroke:blue; stroke-width:1"/>
<line x1="451" y1="433" x2="479" y2="433" style="stroke:blue; stroke-width:1"/>
<line x1="441" y1="414" x2="441" y2="421" style="stroke:blue; stroke-width:1"/>
<line x1="441" y1="421" x2="441" y2="421" style="stroke:blue; stroke-width:1"/>
<line x1="441" y1="414" x2="441" y2="408" style="stroke:blue; stroke-width:1"/>
<line x1="441" y1="408" x2="441" y2="408" style="stroke:blue; stroke-width:1"/>
<line x1="402" y1="442" x2="402" y2="457" style="stroke:blue; stroke-width:1"/>
<line x1="402" y1="457" x2="455" y2="457" style="stroke:blue; stroke-width:1"/>
<line x1="417" y1="353" x2="417" y2="359" style="stroke:blue; stroke-width:1"/>
<line x1="417" y1="359" x2="431" y2="359" style="stroke:blue; stroke-width:1"/>
<line x1="417" y1="353" x2="417" y2="347" style="stroke:blue; stroke-width:1"/>
<line x1="417" y1="347" x2="435" y2="347" style="stroke:blue; stroke-width:1"/>
<line x1="393" y1="362" x2="393" y2="372" style="stroke:blue; stroke-width:1"/>
<line x1="393" y1="372" x2="438" y2="372" style="stroke:blue; stroke-width:1"/>
<line x1="422" y1="390" x2="422" y2="396" style="stroke:blue; stroke-width:1"/>
<line x1="422" y1="396" x2="445" y2="396" style="stroke:blue; stroke-width:1"/>
<line x1="422" y1="390" x2="422" y2="384" style="stroke:blue; stroke-width:1"/>
<line x1="422" y1="384" x2="422" y2="384" style="stroke:blue; stroke-width:1"/>
<line x1="388" y1="476" x2="388" y2="482" style="stroke:blue; stroke-width:1"/>
<line x1="388" y1="482" x2="408" y2="482" style="stroke:blue; stroke-width:1"/>
<line x1="388" y1="476" x2="388" y2="470" style="stroke:blue; stroke-width:1"/>
<line x1="388" y1="470" x2="388" y2="470" style="stroke:blue; stroke-width:1"/>
<line x1="378" y1="485" x2="378" y2="494" style="stroke:blue; stroke-width:1"/>
<line x1="378" y1="494" x2="397" y2="494" style="stroke:blue; stroke-width:1"/>
<line x1="493" y1="512" x2="493" y2="519" style="stroke:blue; stroke-width:1"/>
<line x1="493" y1="519" x2="533" y2="519" style="stroke:blue; stroke-width:1"/>
<line x1="493" y1="512" x2="493" y2="506" style="stroke:blue; stroke-width:1"/>
<line x1="493" y1="506" x2="503" y2="506" style="stroke:blue; stroke-width:1"/>
<line x1="402" y1="522" x2="402" y2="531" style="stroke:blue; stroke-width:1"/>
<line x1="402" y1="531" x2="423" y2="531" style="stroke:blue; stroke-width:1"/>
<line x1="242" y1="514" x2="242" y2="543" style="stroke:blue; stroke-width:1"/>
<line x1="242" y1="543" x2="338" y2="543" style="stroke:blue; stroke-width:1"/>
<line x1="16" y1="608" x2="16" y2="678" style="stroke:blue; stroke-width:1"/>
<line x1="16" y1="678" x2="491" y2="678" style="stroke:blue; stroke-width:1"/>
<line x1="478" y1="252" x2="478" y2="261" style="stroke:blue; stroke-width:1"/>
<line x1="478" y1="261" x2="635" y2="261" style="stroke:blue; stroke-width:1"/>
<line x1="478" y1="252" x2="478" y2="243" style="stroke:blue; stroke-width:1"/>
<line x1="478" y1="243" x2="539" y2="243" style="stroke:blue; stroke-width:1"/>
<line x1="477" y1="204" x2="477" y2="218" style="stroke:blue; stroke-width:1"/>
<line x1="477" y1="218" x2="548" y2="218" style="stroke:blue; stroke-width:1"/>
<line x1="590" y1="178" x2="590" y2="169" style="stroke:blue; stroke-width:1"/>
<line x1="590" y1="169" x2="648" y2="169" style="stroke:blue; stroke-width:1"/>
<line x1="501" y1="189" x2="501" y2="178" style="stroke:blue; stroke-width:1"/>
<line x1="501" y1="178" x2="590" y2="178" style="stroke:blue; stroke-width:1"/>
<line x1="477" y1="204" x2="477" y2="189" style="stroke:blue; stroke-width:1"/>
<line x1="477" y1="189" x2="501" y2="189" style="stroke:blue; stroke-width:1"/>
<line x1="327" y1="228" x2="327" y2="204" style="stroke:blue; stroke-width:1"/>
<line x1="327" y1="204" x2="477" y2="204" style="stroke:blue; stroke-width:1"/>
<line x1="639" y1="129" x2="639" y2="120" style="stroke:blue; stroke-width:1"/>
<line x1="639" y1="120" x2="702" y2="120" style="stroke:blue; stroke-width:1"/>
<line x1="577" y1="140" x2="577" y2="129" style="stroke:blue; stroke-width:1"/>
<line x1="577" y1="129" x2="639" y2="129" style="stroke:blue; stroke-width:1"/>
<line x1="526" y1="110" x2="526" y2="140" style="stroke:blue; stroke-width:1"/>
<line x1="526" y1="140" x2="577" y2="140" style="stroke:blue; stroke-width:1"/>
<line x1="719" y1="31" x2="719" y2="22" style="stroke:blue; stroke-width:1"/>
<line x1="719" y1="22" x2="742" y2="22" style="stroke:blue; stroke-width:1"/>
<line x1="637" y1="42" x2="637" y2="31" style="stroke:blue; stroke-width:1"/>
<line x1="637" y1="31" x2="719" y2="31" style="stroke:blue; stroke-width:1"/>
<line x1="611" y1="54" x2="611" y2="42" style="stroke:blue; stroke-width:1"/>
<line x1="611" y1="42" x2="637" y2="42" style="stroke:blue; stroke-width:1"/>
<line x1="593" y1="65" x2="593" y2="54" style="stroke:blue; stroke-width:1"/>
<line x1="593" y1="54" x2="611" y2="54" style="stroke:blue; stroke-width:1"/>
<line x1="566" y1="81" x2="566" y2="65" style="stroke:blue; stroke-width:1"/>
<line x1="566" y1="65" x2="593" y2="65" style="stroke:blue; stroke-width:1"/>
<line x1="566" y1="81" x2="566" y2="96" style="stroke:blue; stroke-width:1"/>
<line x1="566" y1="96" x2="743" y2="96" style="stroke:blue; stroke-width:1"/>
<line x1="526" y1="110" x2="526" y2="81" style="stroke:blue; stroke-width:1"/>
<line x1="526" y1="81" x2="566" y2="81" style="stroke:blue; stroke-width:1"/>
<line x1="268" y1="169" x2="268" y2="110" style="stroke:blue; stroke-width:1"/>
<line x1="268" y1="110" x2="526" y2="110" style="stroke:blue; stroke-width:1"/>
<line x1="657" y1="289" x2="657" y2="280" style="stroke:blue; stroke-width:1"/>
<line x1="657" y1="280" x2="701" y2="280" style="stroke:blue; stroke-width:1"/>
<line x1="622" y1="299" x2="622" y2="289" style="stroke:blue; stroke-width:1"/>
<line x1="622" y1="289" x2="657" y2="289" style="stroke:blue; stroke-width:1"/>
<line x1="602" y1="311" x2="602" y2="299" style="stroke:blue; stroke-width:1"/>
<line x1="602" y1="299" x2="622" y2="299" style="stroke:blue; stroke-width:1"/>
<line x1="584" y1="323" x2="584" y2="311" style="stroke:blue; stroke-width:1"/>
<line x1="584" y1="311" x2="602" y2="311" style="stroke:blue; stroke-width:1"/>
<line x1="200" y1="246" x2="200" y2="323" style="stroke:blue; stroke-width:1"/>
<line x1="200" y1="323" x2="584" y2="323" style="stroke:blue; stroke-width:1"/>
<line x1="341" y1="657" x2="341" y2="647" style="stroke:blue; stroke-width:1"/>
<line x1="341" y1="647" x2="375" y2="647" style="stroke:blue; stroke-width:1"/>
<line x1="183" y1="608" x2="183" y2="657" style="stroke:blue; stroke-width:1"/>
<line x1="183" y1="657" x2="341" y2="657" style="stroke:blue; stroke-width:1"/>
<line x1="374" y1="585" x2="374" y2="598" style="stroke:blue; stroke-width:1"/>
<line x1="374" y1="598" x2="546" y2="598" style="stroke:blue; stroke-width:1"/>
<line x1="433" y1="571" x2="433" y2="562" style="stroke:blue; stroke-width:1"/>
<line x1="433" y1="562" x2="508" y2="562" style="stroke:blue; stroke-width:1"/>
<line x1="374" y1="585" x2="374" y2="571" style="stroke:blue; stroke-width:1"/>
<line x1="374" y1="571" x2="433" y2="571" style="stroke:blue; stroke-width:1"/>
<line x1="256" y1="604" x2="256" y2="585" style="stroke:blue; stroke-width:1"/>
<line x1="256" y1="585" x2="374" y2="585" style="stroke:blue; stroke-width:1"/>
<line x1="256" y1="604" x2="256" y2="623" style="stroke:blue; stroke-width:1"/>
<line x1="256" y1="623" x2="318" y2="623" style="stroke:blue; stroke-width:1"/>
<line x1="234" y1="559" x2="234" y2="604" style="stroke:blue; stroke-width:1"/>
<line x1="234" y1="604" x2="256" y2="604" style="stroke:blue; stroke-width:1"/>
<line x1="431" y1="427" x2="431" y2="439" style="stroke:blue; stroke-width:1"/>
<line x1="431" y1="439" x2="451" y2="439" style="stroke:blue; stroke-width:1"/>
<line x1="431" y1="427" x2="431" y2="414" style="stroke:blue; stroke-width:1"/>
<line x1="431" y1="414" x2="441" y2="414" style="stroke:blue; stroke-width:1"/>
<line x1="402" y1="442" x2="402" y2="427" style="stroke:blue; stroke-width:1"/>
<line x1="402" y1="427" x2="431" y2="427" style="stroke:blue; stroke-width:1"/>
<line x1="377" y1="409" x2="377" y2="442" style="stroke:blue; stroke-width:1"/>
<line x1="377" y1="442" x2="402" y2="442" style="stroke:blue; stroke-width:1"/>
<line x1="393" y1="362" x2="393" y2="353" style="stroke:blue; stroke-width:1"/>
<line x1="393" y1="353" x2="417" y2="353" style="stroke:blue; stroke-width:1"/>
<line x1="383" y1="376" x2="383" y2="362" style="stroke:blue; stroke-width:1"/>
<line x1="383" y1="362" x2="393" y2="362" style="stroke:blue; stroke-width:1"/>
<line x1="383" y1="376" x2="383" y2="390" style="stroke:blue; stroke-width:1"/>
<line x1="383" y1="390" x2="422" y2="390" style="stroke:blue; stroke-width:1"/>
<line x1="377" y1="409" x2="377" y2="376" style="stroke:blue; stroke-width:1"/>
<line x1="377" y1="376" x2="383" y2="376" style="stroke:blue; stroke-width:1"/>
<line x1="293" y1="447" x2="293" y2="409" style="stroke:blue; stroke-width:1"/>
<line x1="293" y1="409" x2="377" y2="409" style="stroke:blue; stroke-width:1"/>
<line x1="378" y1="485" x2="378" y2="476" style="stroke:blue; stroke-width:1"/>
<line x1="378" y1="476" x2="388" y2="476" style="stroke:blue; stroke-width:1"/>
<line x1="293" y1="447" x2="293" y2="485" style="stroke:blue; stroke-width:1"/>
<line x1="293" y1="485" x2="378" y2="485" style="stroke:blue; stroke-width:1"/>
<line x1="277" y1="484" x2="277" y2="447" style="stroke:blue; stroke-width:1"/>
<line x1="277" y1="447" x2="293" y2="447" style="stroke:blue; stroke-width:1"/>
<line x1="402" y1="522" x2="402" y2="512" style="stroke:blue; stroke-width:1"/>
<line x1="402" y1="512" x2="493" y2="512" style="stroke:blue; stroke-width:1"/>
<line x1="277" y1="484" x2="277" y2="522" style="stroke:blue; stroke-width:1"/>
<line x1="277" y1="522" x2="402" y2="522" style="stroke:blue; stroke-width:1"/>
<line x1="242" y1="514" x2="242" y2="484" style="stroke:blue; stroke-width:1"/>
<line x1="242" y1="484" x2="277" y2="484" style="stroke:blue; stroke-width:1"/>
<line x1="234" y1="559" x2="234" y2="514" style="stroke:blue; stroke-width:1"/>
<line x1="234" y1="514" x2="242" y2="514" style="stroke:blue; stroke-width:1"/>
<line x1="183" y1="608" x2="183" y2="559" style="stroke:blue; stroke-width:1"/>
<line x1="183" y1="559" x2="234" y2="559" style="stroke:blue; stroke-width:1"/>
<line x1="16" y1="608" x2="16" y2="608" style="stroke:blue; stroke-width:1"/>
<line x1="16" y1="608" x2="183" y2="608" style="stroke:blue; stroke-width:1"/>
<line x1="16" y1="608" x2="16" y2="246" style="stroke:blue; stroke-width:1"/>
<line x1="16" y1="246" x2="200" y2="246" style="stroke:blue; stroke-width:1"/>
<line x1="200" y1="246" x2="200" y2="169" style="stroke:blue; stroke-width:1"/>
<line x1="200" y1="169" x2="268" y2="169" style="stroke:blue; stroke-width:1"/>
<line x1="268" y1="169" x2="268" y2="228" style="stroke:blue; stroke-width:1"/>
<line x1="268" y1="228" x2="327" y2="228" style="stroke:blue; stroke-width:1"/>
<line x1="327" y1="228" x2="327" y2="252" style="stroke:blue; stroke-width:1"/>
<line x1="327" y1="252" x2="478" y2="252" style="stroke:blue; stroke-width:1"/>
<text x="495" y="681" font-weight = "10" font-family="verdana" fill="black" font-size="14">angiotensi28</text>
<text x="476" y="669" font-weight = "10" font-family="verdana" fill="black" font-size="14">angiotensi54</text>
<text x="565" y="656" font-weight = "10" font-family="verdana" fill="black" font-size="14">angiotensi53</text>
<text x="480" y="644" font-weight = "10" font-family="verdana" fill="black" font-size="14">angiotensi55</text>
<text x="628" y="632" font-weight = "10" font-family="verdana" fill="black" font-size="14">angiotensi29</text>
<text x="473" y="620" font-weight = "10" font-family="verdana" fill="black" font-size="14">angiotensi38</text>
<text x="588" y="607" font-weight = "10" font-family="verdana" fill="black" font-size="14">angiotensi30</text>
<text x="566" y="595" font-weight = "10" font-family="verdana" fill="black" font-size="14">angiotensi31</text>
<text x="496" y="583" font-weight = "10" font-family="verdana" fill="black" font-size="14">angiotensi32</text>
<text x="518" y="571" font-weight = "10" font-family="verdana" fill="black" font-size="14">angiotensi34</text>
<text x="512" y="558" font-weight = "10" font-family="verdana" fill="black" font-size="14">angiotensi33</text>
<text x="342" y="546" font-weight = "10" font-family="verdana" fill="black" font-size="14">angiotensi40</text>
<text x="427" y="534" font-weight = "10" font-family="verdana" fill="black" font-size="14">angiotensi35</text>
<text x="537" y="522" font-weight = "10" font-family="verdana" fill="black" font-size="14">angiotensi36</text>
<text x="507" y="509" font-weight = "10" font-family="verdana" fill="black" font-size="14">angiotensi37</text>
<text x="401" y="497" font-weight = "10" font-family="verdana" fill="black" font-size="14">angiotensi51</text>
<text x="412" y="485" font-weight = "10" font-family="verdana" fill="black" font-size="14">angiotensi50</text>
<text x="392" y="473" font-weight = "10" font-family="verdana" fill="black" font-size="14">angiotensi52</text>
<text x="459" y="460" font-weight = "10" font-family="verdana" fill="black" font-size="14">angiotensi39</text>
<text x="459" y="448" font-weight = "10" font-family="verdana" fill="black" font-size="14">angiotensi42</text>
<text x="483" y="436" font-weight = "10" font-family="verdana" fill="black" font-size="14">angiotensi41</text>
<text x="445" y="424" font-weight = "10" font-family="verdana" fill="black" font-size="14">angiotensi44</text>
<text x="445" y="411" font-weight = "10" font-family="verdana" fill="black" font-size="14">angiotensi43</text>
<text x="449" y="399" font-weight = "10" font-family="verdana" fill="black" font-size="14">angiotensi46</text>
<text x="426" y="387" font-weight = "10" font-family="verdana" fill="black" font-size="14">angiotensi47</text>
<text x="442" y="375" font-weight = "10" font-family="verdana" fill="black" font-size="14">angiotensi45</text>
<text x="435" y="362" font-weight = "10" font-family="verdana" fill="black" font-size="14">angiotensi48</text>
<text x="439" y="350" font-weight = "10" font-family="verdana" fill="black" font-size="14">angiotensi49</text>
<text x="672" y="338" font-weight = "10" font-family="verdana" fill="black" font-size="14">angiotensi4</text>
<text x="744" y="325" font-weight = "10" font-family="verdana" fill="black" font-size="14">angiotensi3</text>
<text x="710" y="313" font-weight = "10" font-family="verdana" fill="black" font-size="14">angiotensi5</text>
<text x="819" y="301" font-weight = "10" font-family="verdana" fill="black" font-size="14">angiotensi6</text>
<text x="913" y="289" font-weight = "10" font-family="verdana" fill="black" font-size="14">angiotensi2</text>
<text x="831" y="276" font-weight = "10" font-family="verdana" fill="black" font-size="14">angiotensi7</text>
<text x="639" y="264" font-weight = "10" font-family="verdana" fill="black" font-size="14">angiotensi1</text>
<text x="565" y="252" font-weight = "10" font-family="verdana" fill="black" font-size="14">angiotensi8</text>
<text x="555" y="240" font-weight = "10" font-family="verdana" fill="black" font-size="14">angiotensi9</text>
<text x="732" y="227" font-weight = "10" font-family="verdana" fill="black" font-size="14">angiotensi15</text>
<text x="816" y="215" font-weight = "10" font-family="verdana" fill="black" font-size="14">angiotensi14</text>
<text x="722" y="203" font-weight = "10" font-family="verdana" fill="black" font-size="14">angiotensi12</text>
<text x="712" y="191" font-weight = "10" font-family="verdana" fill="black" font-size="14">angiotensi13</text>
<text x="811" y="178" font-weight = "10" font-family="verdana" fill="black" font-size="14">angiotensi10</text>
<text x="874" y="166" font-weight = "10" font-family="verdana" fill="black" font-size="14">angiotensi11</text>
<text x="746" y="154" font-weight = "10" font-family="verdana" fill="black" font-size="14">angiotensi22</text>
<text x="665" y="142" font-weight = "10" font-family="verdana" fill="black" font-size="14">angiotensi23</text>
<text x="720" y="129" font-weight = "10" font-family="verdana" fill="black" font-size="14">angiotensi25</text>
<text x="706" y="117" font-weight = "10" font-family="verdana" fill="black" font-size="14">angiotensi24</text>
<text x="769" y="105" font-weight = "10" font-family="verdana" fill="black" font-size="14">angiotensi20</text>
<text x="776" y="93" font-weight = "10" font-family="verdana" fill="black" font-size="14">angiotensi19</text>
<text x="801" y="80" font-weight = "10" font-family="verdana" fill="black" font-size="14">angiotensi21</text>
<text x="860" y="68" font-weight = "10" font-family="verdana" fill="black" font-size="14">angiotensi17</text>
<text x="712" y="56" font-weight = "10" font-family="verdana" fill="black" font-size="14">angiotensi27</text>
<text x="1075" y="44" font-weight = "10" font-family="verdana" fill="black" font-size="14">angiotensi16</text>
<text x="918" y="31" font-weight = "10" font-family="verdana" fill="black" font-size="14">angiotensi18</text>
<text x="818" y="19" font-weight = "10" font-family="verdana" fill="black" font-size="14">angiotensi26</text>
</g></svg>